<svg xmlns="http://www.w3.org/2000/svg" viewBox="0 0 256 256" role="img" aria-labelledby="title">
  <title id="title">MK Toys and Antique</title>
  <defs>
    <radialGradient id="a" cx="50%" cy="38%" r="58%">
      <stop offset="0" stop-color="#13bfd2"/>
      <stop offset="0.42" stop-color="#0b6684"/>
      <stop offset="1" stop-color="#06142b"/>
    </radialGradient>
    <linearGradient id="b" x1="24" x2="232" y1="24" y2="232">
      <stop offset="0" stop-color="#f6df82"/>
      <stop offset="0.42" stop-color="#c58b2c"/>
      <stop offset="0.72" stop-color="#f5d978"/>
      <stop offset="1" stop-color="#8f5d1e"/>
    </linearGradient>
    <filter id="shadow" x="-20%" y="-20%" width="140%" height="140%">
      <feDropShadow dx="0" dy="8" stdDeviation="7" flood-color="#000814" flood-opacity="0.45"/>
    </filter>
  </defs>
  <path d="M128 14c44 0 82 13 100 34v83c0 43-42 80-100 111C70 211 28 174 28 131V48c18-21 56-34 100-34z" fill="url(#b)" filter="url(#shadow)"/>
  <path d="M128 25c38 0 71 11 87 28v73c0 36-36 68-87 96-51-28-87-60-87-96V53c16-17 49-28 87-28z" fill="#071126"/>
  <path d="M128 38c31 0 58 9 72 23v58c0 30-30 57-72 80-42-23-72-50-72-80V61c14-14 41-23 72-23z" fill="url(#a)" stroke="#d3a84b" stroke-width="4"/>
  <path d="M68 72c-9 3-16 10-19 20l-6-2c4-14 14-24 27-28l4 5v97h-6V72zM188 72c9 3 16 10 19 20l6-2c-4-14-14-24-27-28l-4 5v97h6V72z" fill="#b9852f"/>
  <text x="128" y="121" text-anchor="middle" font-family="Georgia, 'Times New Roman', serif" font-size="70" font-weight="700" fill="#f3cf67" stroke="#05233e" stroke-width="2">MK</text>
  <text x="128" y="154" text-anchor="middle" font-family="Arial, Helvetica, sans-serif" font-size="14" font-weight="800" letter-spacing="1.5" fill="#f7d46d">TOYS &amp; ANTIQUE</text>
  <path d="M57 177c24 22 48 36 71 48 23-12 47-26 71-48-18 9-43 18-71 18s-53-9-71-18z" fill="#042c4a" opacity="0.82"/>
</svg>
